<svg class="mob-fixed-nav__btn-ico" viewBox="0 0 24 24" fill="none" xmlns="http://www.w3.org/2000/svg"><path d="M12 5.58022V19.8753C12 19.9393 11.9408 19.9868 11.8783 19.973L4.56614 18.348C3.65106 18.1447 3 17.3331 3 16.3957V5.99323C3 4.71374 4.18483 3.7633 5.43386 4.04086L11.9217 5.4826C11.9674 5.49277 12 5.53335 12 5.58022Z" stroke="#1C1C1C" stroke-linejoin="bevel"/><path d="M12 5.58022V19.8753C12 19.9393 12.0592 19.9868 12.1217 19.973L19.4339 18.348C20.3489 18.1447 21 17.3331 21 16.3957V5.99323C21 4.71374 19.8152 3.7633 18.5661 4.04086L12.0783 5.4826C12.0326 5.49277 12 5.53335 12 5.58022Z" stroke="#1C1C1C" stroke-linejoin="bevel"/></svg>