<?xml version="1.0" encoding="UTF-8"?>
<svg version="1.1" xmlns="http://www.w3.org/2000/svg" width="300" height="73">
<path d="M0 0 C7.60574145 5.33537087 12.15624778 12.60597326 14.60546875 21.52734375 C15.81999107 34.23746101 13.72605092 43.62913253 5.59765625 53.484375 C-1.98461419 61.259919 -10.73320546 64.15797498 -21.39453125 64.52734375 C-23.79763711 64.3480712 -26.02417555 63.991109 -28.39453125 63.52734375 C-28.39453125 64.18734375 -28.39453125 64.84734375 -28.39453125 65.52734375 C-27.73453125 65.52734375 -27.07453125 65.52734375 -26.39453125 65.52734375 C-26.39453125 66.18734375 -26.39453125 66.84734375 -26.39453125 67.52734375 C-28.26953125 67.33984375 -28.26953125 67.33984375 -30.39453125 66.52734375 C-30.68328125 65.72296875 -30.97203125 64.91859375 -31.26953125 64.08984375 C-31.64078125 63.24421875 -32.01203125 62.39859375 -32.39453125 61.52734375 C-33.66296875 61.12515625 -33.66296875 61.12515625 -34.95703125 60.71484375 C-42.66167892 58.05323819 -47.80263485 51.79891124 -51.421875 44.703125 C-51.74285156 43.98511719 -52.06382813 43.26710937 -52.39453125 42.52734375 C-52.75933594 41.77195313 -53.12414063 41.0165625 -53.5 40.23828125 C-56.19827304 32.06098216 -55.3490017 21.40274371 -51.65234375 13.69921875 C-46.81453862 5.34574156 -40.38137392 -1.87670225 -30.91796875 -5 C-19.79992764 -7.08248138 -9.66440833 -5.94368995 0 0 Z " fill="#EB5A6E" transform="translate(54.39453125,5.47265625)"/>
<path d="M0 0 C6.0709165 4.26979397 10.34089242 8.93126265 11.8828125 16.32421875 C12.84741002 23.08845889 11.38769245 28.49409482 7.8828125 34.32421875 C3.92099823 38.88030516 -0.27692205 42.5585571 -6.1171875 44.32421875 C-8.4492677 44.4006804 -10.78564628 44.41565174 -13.1171875 44.32421875 C-12.1271875 41.35421875 -11.1371875 38.38421875 -10.1171875 35.32421875 C-8.7971875 35.65421875 -7.4771875 35.98421875 -6.1171875 36.32421875 C-6.7771875 34.67421875 -7.4371875 33.02421875 -8.1171875 31.32421875 C-8.7771875 31.32421875 -9.4371875 31.32421875 -10.1171875 31.32421875 C-11.7671875 35.28421875 -13.4171875 39.24421875 -15.1171875 43.32421875 C-16.7671875 43.32421875 -18.4171875 43.32421875 -20.1171875 43.32421875 C-20.4471875 42.99421875 -20.7771875 42.66421875 -21.1171875 42.32421875 C-21.11122354 39.81935669 -21.06200629 37.32732047 -20.9921875 34.82421875 C-20.89007626 29.08632823 -21.31806719 24.5922548 -23.51171875 19.2265625 C-24.53465781 16.01255397 -23.92480078 13.55467188 -23.1171875 10.32421875 C-22.1171875 9.32421875 -22.1171875 9.32421875 -20.05078125 9.2265625 C-18.81521484 9.24396484 -18.81521484 9.24396484 -17.5546875 9.26171875 C-16.72839844 9.27074219 -15.90210937 9.27976562 -15.05078125 9.2890625 C-14.41269531 9.30066406 -13.77460937 9.31226563 -13.1171875 9.32421875 C-19.24156604 5.67212383 -19.24156604 5.67212383 -26.1171875 5.32421875 C-29.05099658 7.66555543 -29.10966472 8.26497685 -29.6171875 12.26171875 C-29.50950569 16.4141987 -28.3379112 19.44002409 -26.6171875 23.19921875 C-23.93181016 29.08435557 -23.55112971 33.93405522 -24.1171875 40.32421875 C-26.68149316 39.95321282 -27.82966553 39.66416186 -29.53125 37.65234375 C-29.93085938 36.9665625 -30.33046875 36.28078125 -30.7421875 35.57421875 C-31.14695312 34.89875 -31.55171875 34.22328125 -31.96875 33.52734375 C-35.32352071 27.09166117 -36.0097202 21.539641 -35.1171875 14.32421875 C-32.49238869 7.09686575 -25.99889511 1.26507256 -19.2421875 -2.11328125 C-12.3218291 -3.35894576 -6.23166513 -3.59519142 0 0 Z " fill="#5F96AC" transform="translate(46.1171875,13.67578125)"/>
<path d="M0 0 C2.46365943 1.19348482 4.67885642 2.53152141 7 4 C3.52674819 5.1577506 0.63932552 5.06866652 -3 5 C-4.00035653 9.27425063 -4.24178184 11.85700207 -2.5625 15.9375 C0.01312377 22.65753657 -0.76561698 29.92510526 -1 37 C0.65 37.33 2.3 37.66 4 38 C4.19335938 37.31292969 4.38671875 36.62585937 4.5859375 35.91796875 C4.84632812 35.01691406 5.10671875 34.11585937 5.375 33.1875 C5.63023438 32.29417969 5.88546875 31.40085938 6.1484375 30.48046875 C7 28 7 28 9 25 C11.86477034 26.05041579 12.83913226 26.70124563 14.3125 29.4375 C15 32 15 32 14 35 C13.731875 34.360625 13.46375 33.72125 13.1875 33.0625 C12.11332248 30.66868314 12.11332248 30.66868314 9 30 C8.690625 31.11375 8.38125 32.2275 8.0625 33.375 C7 37 7 37 6 39 C11.48952453 37.96308981 16.01582017 36.61076087 21 34 C24 34 24 34 25.60546875 35.20703125 C26.12753906 35.73683594 26.64960937 36.26664063 27.1875 36.8125 C27.71730469 37.33457031 28.24710938 37.85664062 28.79296875 38.39453125 C30 40 30 40 30 43 C22.77463439 49.1800716 13.16268904 51.53433915 3.80078125 50.8359375 C2.19257262 50.60759145 0.59411428 50.31189192 -1 50 C-1 50.66 -1 51.32 -1 52 C-0.34 52 0.32 52 1 52 C1 52.66 1 53.32 1 54 C-0.8125 53.9375 -0.8125 53.9375 -3 53 C-6.40030247 47.02322131 -6.1926031 42.04833232 -5.875 35.3125 C-5.66086944 27.39293363 -6.23443873 21.66053123 -9.87109375 14.48046875 C-11.61544019 10.64773523 -11.91772122 7.10377227 -11 3 C-8.08531455 -1.89667156 -5.16973253 -1.40196137 0 0 Z " fill="#EA596C" transform="translate(27,19)"/>
<path d="M0 0 C2.64 0 5.28 0 8 0 C9.67223282 4.12276549 11.33684063 8.24856675 13 12.375 C13.47695312 13.550625 13.95390625 14.72625 14.4453125 15.9375 C14.89648438 17.05898438 15.34765625 18.18046875 15.8125 19.3359375 C16.23144531 20.37282715 16.65039062 21.4097168 17.08203125 22.47802734 C18 25 18 25 18 27 C19.32 27 20.64 27 22 27 C22 30.63 22 34.26 22 38 C19.69 38 17.38 38 15 38 C15 36.68 15 35.36 15 34 C4.605 34.495 4.605 34.495 -6 35 C-6 35.99 -6 36.98 -6 38 C-8.64 38 -11.28 38 -14 38 C-14 34.37 -14 30.74 -14 27 C-12.68 26.67 -11.36 26.34 -10 26 C-8.51117114 23.43467197 -8.51117114 23.43467197 -7.421875 20.21484375 C-6.98359375 19.04501953 -6.5453125 17.87519531 -6.09375 16.66992188 C-5.6503125 15.43822266 -5.206875 14.20652344 -4.75 12.9375 C-4.29109375 11.70193359 -3.8321875 10.46636719 -3.359375 9.19335938 C-2.22534263 6.13383453 -1.10634162 3.06962385 0 0 Z M4 11 C3.18082358 12.72601379 2.36993984 14.4559647 1.5625 16.1875 C1.11003906 17.15042969 0.65757813 18.11335938 0.19140625 19.10546875 C-1.22115669 22.27431049 -1.22115669 22.27431049 -2 27 C2.29 27 6.58 27 11 27 C9.02 21.72 7.04 16.44 5 11 C4.67 11 4.34 11 4 11 Z " fill="#ffffff" transform="translate(93,6)"/>
<path d="M0 0 C2.64 0 5.28 0 8 0 C8.33 5.28 8.66 10.56 9 16 C9.65226563 14.845 10.30453125 13.69 10.9765625 12.5 C11.85821369 10.99931713 12.74109042 9.49935378 13.625 8 C14.05167969 7.236875 14.47835937 6.47375 14.91796875 5.6875 C15.34980469 4.965625 15.78164062 4.24375 16.2265625 3.5 C16.80784912 2.49453125 16.80784912 2.49453125 17.40087891 1.46875 C19 0 19 0 25 0 C25 11.22 25 22.44 25 34 C22.69 34 20.38 34 18 34 C17.67 28.39 17.34 22.78 17 17 C16.28972656 18.14339844 15.57945312 19.28679688 14.84765625 20.46484375 C13.91934165 21.95577326 12.99095238 23.44665628 12.0625 24.9375 C11.59392578 25.69224609 11.12535156 26.44699219 10.64257812 27.22460938 C10.19462891 27.94326172 9.74667969 28.66191406 9.28515625 29.40234375 C8.87144775 30.06741943 8.45773926 30.73249512 8.03149414 31.41772461 C7 33 7 33 6 34 C4.02 34 2.04 34 0 34 C0 22.78 0 11.56 0 0 Z " fill="#ffffff" transform="translate(217,6)"/>
<path d="M0 0 C6.69918582 6.12496989 11.45487898 13.29524515 12.3359375 22.515625 C12.47256545 35.57725677 9.45976826 43.16195488 1 53 C-1.93200474 50.14723863 -4.64315404 47.34920216 -7 44 C-6.21625 42.96875 -5.4325 41.9375 -4.625 40.875 C-0.39624527 34.88526242 0.79634179 29.24058456 0 22 C-1.21526616 16.9703948 -2.93782836 13.36179722 -7 10 C-5.33248852 6.05860922 -2.77289351 3.2107188 0 0 Z " fill="#EB596E" transform="translate(57,8)"/>
<path d="M0 0 C3.09584403 1.57606605 4.22468291 3.04999529 5.5625 6.25 C3.9125 7.57 2.2625 8.89 0.5625 10.25 C-0.241875 9.569375 -1.04625 8.88875 -1.875 8.1875 C-5.44198598 5.7925237 -8.24317488 6.07524053 -12.38671875 6.59765625 C-14.86645317 7.38644796 -15.88473905 8.167028 -17.4375 10.25 C-18.08590315 12.3804552 -18.08590315 12.3804552 -18.25 14.6875 C-18.33894531 15.44933594 -18.42789063 16.21117188 -18.51953125 16.99609375 C-18.42482235 19.59833346 -17.80265404 21.0513835 -16.4375 23.25 C-13.39294735 25.59196358 -10.15906676 25.59020241 -6.39453125 25.52734375 C-3.6585881 25.13961528 -1.76793741 23.6741562 0.5625 22.25 C2.8125 22.8125 2.8125 22.8125 4.5625 24.25 C5.171875 26.33984375 5.171875 26.33984375 5.5625 28.25 C0.07150117 32.77199903 -4.50600681 34.00867851 -11.6015625 33.66015625 C-16.60031806 32.93719573 -19.50626555 31.38815243 -22.96875 27.5546875 C-26.75714518 22.35616744 -27.38067613 17.54490586 -26.4375 11.25 C-24.65734261 5.8048127 -21.049239 2.46773607 -16.4375 -0.75 C-10.78971116 -2.63259628 -5.43081268 -2.52711174 0 0 Z " fill="#ffffff" transform="translate(273.4375,6.75)"/>
<path d="M0 0 C0.70680908 0.00161133 1.41361816 0.00322266 2.1418457 0.00488281 C10.42529783 0.19771908 17.17974654 2.65109677 23.3125 8.375 C21.7294423 12.6492558 18.80681596 14.64031794 15.3125 17.375 C14.755625 16.92125 14.19875 16.4675 13.625 16 C8.09103768 12.11126972 2.93086862 11.70006743 -3.6875 12.375 C-7.93105785 13.49936148 -11.78327625 15.39708929 -15.6875 17.375 C-16.69643131 16.27898831 -17.69438225 15.17286082 -18.6875 14.0625 C-19.244375 13.44761719 -19.80125 12.83273437 -20.375 12.19921875 C-21.6875 10.375 -21.6875 10.375 -21.6875 7.375 C-20.29385 6.57949608 -18.89746569 5.78878162 -17.5 5 C-16.33404297 4.33871094 -16.33404297 4.33871094 -15.14453125 3.6640625 C-10.00853287 0.96950055 -5.8076427 -0.01372803 0 0 Z " fill="#EA596D" transform="translate(33.6875,-0.375)"/>
<path d="M0 0 C1.72265625 1.44921875 1.72265625 1.44921875 3 3 C3 3.99 3 4.98 3 6 C0.9635505 6.84600276 -1.07943487 7.6762825 -3.125 8.5 C-4.26195312 8.9640625 -5.39890625 9.428125 -6.5703125 9.90625 C-9.9471645 10.98315041 -12.48614728 11.21360807 -16 11 C-14.68 10.67 -13.36 10.34 -12 10 C-12 9.34 -12 8.68 -12 8 C-13.051875 7.8453125 -13.051875 7.8453125 -14.125 7.6875 C-17 7 -17 7 -20 5.4375 C-23.06846668 3.96719305 -24.66535389 3.45924658 -28 4 C-30.94131398 6.32883698 -30.99337849 6.94785562 -31.5 10.9375 C-31.39231819 15.08997995 -30.2207237 18.11580534 -28.5 21.875 C-25.81462266 27.76013682 -25.43394221 32.60983647 -26 39 C-28.56430566 38.62899407 -29.71247803 38.33994311 -31.4140625 36.328125 C-31.81367188 35.64234375 -32.21328125 34.9565625 -32.625 34.25 C-33.02976562 33.57453125 -33.43453125 32.8990625 -33.8515625 32.203125 C-37.20633321 25.76744242 -37.8925327 20.21542225 -37 13 C-34.37520119 5.772647 -27.88170761 -0.05914619 -21.125 -3.4375 C-13.22187509 -4.86006248 -6.76256432 -4.66976151 0 0 Z " fill="#5E96AC" transform="translate(48,15)"/>
<path d="M0 0 C4.20475482 1.6997945 6.20472472 3.8425204 8 8 C8 10.31 8 12.62 8 15 C2.06 15.33 -3.88 15.66 -10 16 C-9.67 16.66 -9.34 17.32 -9 18 C-5.63418057 18.91795075 -3.70082937 19.29058779 -0.4375 17.9375 C2 17 2 17 4.8125 17.875 C5.534375 18.24625 6.25625 18.6175 7 19 C6.0195412 21.58484592 5.06077857 22.94843031 2.9375 24.75 C-1.13419962 26.48263814 -4.63848505 26.69230396 -9 26 C-13.38410756 23.80794622 -16.13092657 21.56884617 -18 17 C-18.54067915 12.13388763 -18.54236245 10.02661464 -16.25 5.6875 C-11.31522225 -0.20681786 -7.47736583 -0.8861164 0 0 Z M-10 9 C-6.37 9 -2.74 9 1 9 C-1.59864035 5.80696859 -1.59864035 5.80696859 -4.5 5.625 C-7.40135965 5.80696859 -7.40135965 5.80696859 -10 9 Z " fill="#ffffff" transform="translate(134,14)"/>
<path d="M0 0 C2.31 0 4.62 0 7 0 C7 2.97 7 5.94 7 9 C9.64 9 12.28 9 15 9 C15 6.03 15 3.06 15 0 C17.31 0 19.62 0 22 0 C22 8.58 22 17.16 22 26 C19.69 26 17.38 26 15 26 C15 22.7 15 19.4 15 16 C12.36 16 9.72 16 7 16 C7 19.3 7 22.6 7 26 C4.69 26 2.38 26 0 26 C0 17.42 0 8.84 0 0 Z " fill="#ffffff" transform="translate(146,14)"/>
<path d="M0 0 C6.27 0 12.54 0 19 0 C19 2.31 19 4.62 19 7 C17.02 7 15.04 7 13 7 C13 15.91 13 24.82 13 34 C10.36 34 7.72 34 5 34 C5 25.42 5 16.84 5 8 C3.35 7.67 1.7 7.34 0 7 C0 4.69 0 2.38 0 0 Z " fill="#ffffff"  transform="translate(281,6)"/>
<path d="M0 0 C7.92 0 15.84 0 24 0 C24 2.31 24 4.62 24 7 C21.36 7 18.72 7 16 7 C16 13.27 16 19.54 16 26 C13.69 26 11.38 26 9 26 C9 19.73 9 13.46 9 7 C6.03 7 3.06 7 0 7 C0 4.69 0 2.38 0 0 Z " fill="#ffffff" transform="translate(171,14)"/>
<path d="M0 0 C2.46365943 1.19348482 4.67885642 2.53152141 7 4 C3.52674819 5.1577506 0.63932552 5.06866652 -3 5 C-4.0270863 9.38845966 -4.17634023 12.07428407 -2.5625 16.3125 C-0.3703888 22.17814914 -0.45693654 27.80950217 -1.5 33.9375 C-2.46472074 39.84641453 -2.71042978 46.21711838 -1 52 C-0.34 52 0.32 52 1 52 C1 52.66 1 53.32 1 54 C-0.8125 53.9375 -0.8125 53.9375 -3 53 C-6.40030247 47.02322131 -6.1926031 42.04833232 -5.875 35.3125 C-5.66086944 27.39293363 -6.23443873 21.66053123 -9.87109375 14.48046875 C-11.61544019 10.64773523 -11.91772122 7.10377227 -11 3 C-8.08531455 -1.89667156 -5.16973253 -1.40196137 0 0 Z " fill="#F5F8FA" transform="translate(27,19)"/>
<path d="M0 0 C1.21236328 0.04060547 1.21236328 0.04060547 2.44921875 0.08203125 C3.06410156 0.11683594 3.67898437 0.15164062 4.3125 0.1875 C4.6425 0.8475 4.9725 1.5075 5.3125 2.1875 C5.9725 1.5275 6.6325 0.8675 7.3125 0.1875 C8.3025 0.1875 9.2925 0.1875 10.3125 0.1875 C9.3125 2.1875 8.3125 4.1875 7.3125 6.1875 C8.3025 7.1775 9.2925 8.1675 10.3125 9.1875 C10.43625 8.445 10.56 7.7025 10.6875 6.9375 C11.26736701 4.38608515 12.04958739 2.4607427 13.3125 0.1875 C14.3025 0.1875 15.2925 0.1875 16.3125 0.1875 C17.3025 2.8275 18.2925 5.4675 19.3125 8.1875 C19.3125 7.5275 19.3125 6.8675 19.3125 6.1875 C19.6875 3.625 19.6875 3.625 20.3125 1.1875 C23.02129335 -0.16689668 25.32183268 0.12248549 28.3125 0.1875 C28.3125 3.8175 28.3125 7.4475 28.3125 11.1875 C27.3225 11.1875 26.3325 11.1875 25.3125 11.1875 C24.8175 9.7025 24.8175 9.7025 24.3125 8.1875 C23.3225 9.6725 23.3225 9.6725 22.3125 11.1875 C19.1875 11.375 19.1875 11.375 16.3125 11.1875 C16.3125 10.5275 16.3125 9.8675 16.3125 9.1875 C14.9925 9.1875 13.6725 9.1875 12.3125 9.1875 C12.3125 9.8475 12.3125 10.5075 12.3125 11.1875 C10.3325 11.1875 8.3525 11.1875 6.3125 11.1875 C5.9825 10.5275 5.6525 9.8675 5.3125 9.1875 C4.9825 9.8475 4.6525 10.5075 4.3125 11.1875 C2.87594146 11.26881463 1.4380517 11.32683559 0 11.375 C-1.20076172 11.42720703 -1.20076172 11.42720703 -2.42578125 11.48046875 C-4.6875 11.1875 -4.6875 11.1875 -6.45703125 9.83203125 C-7.6875 8.1875 -7.6875 8.1875 -8.0625 5.6875 C-7.32578631 0.77607538 -4.64330468 -0.20188281 0 0 Z M-3.6875 3.1875 C-4.0175 4.5075 -4.3475 5.8275 -4.6875 7.1875 C-1.71175724 7.89016613 -1.71175724 7.89016613 1.3125 8.1875 C1.3125 6.5375 1.3125 4.8875 1.3125 3.1875 C-0.3375 3.1875 -1.9875 3.1875 -3.6875 3.1875 Z M22.3125 3.1875 C22.3125 3.8475 22.3125 4.5075 22.3125 5.1875 C23.3025 5.1875 24.2925 5.1875 25.3125 5.1875 C25.3125 4.5275 25.3125 3.8675 25.3125 3.1875 C24.3225 3.1875 23.3325 3.1875 22.3125 3.1875 Z " fill="#ffffff" transform="translate(202.6875,52.8125)"/>
<path d="M0 0 C3.63 0 7.26 0 11 0 C11.33 0.99 11.66 1.98 12 3 C12.66 2.01 13.32 1.02 14 0 C17.125 -0.1875 17.125 -0.1875 20 0 C20 1.65 20 3.3 20 5 C20.99 5 21.98 5 23 5 C23 3.35 23 1.7 23 0 C23.99 0 24.98 0 26 0 C26 3.63 26 7.26 26 11 C25.01 11 24.02 11 23 11 C23 10.01 23 9.02 23 8 C20.525 7.505 20.525 7.505 18 7 C17.67 8.32 17.34 9.64 17 11 C16.01 11 15.02 11 14 11 C13.67 10.01 13.34 9.02 13 8 C12.01 9.485 12.01 9.485 11 11 C10.01 11 9.02 11 8 11 C8 8.36 8 5.72 8 3 C6.35 3 4.7 3 3 3 C3 5.64 3 8.28 3 11 C2.01 11 1.02 11 0 11 C0 7.37 0 3.74 0 0 Z M10 4 C11 6 11 6 11 6 Z " fill="#ffffff" transform="translate(161,53)"/>
<path d="M0 0 C1.1446875 0.01804688 2.289375 0.03609375 3.46875 0.0546875 C4.4690625 0.07789063 5.469375 0.10109375 6.5 0.125 C7.49 0.125 8.48 0.125 9.5 0.125 C12.43446884 0.65853979 13.32586238 0.95086238 15.5 3.125 C14.92307692 9.70192308 14.92307692 9.70192308 13.5 11.125 C11.125 11.4375 11.125 11.4375 8.5 11.125 C6.625 9.375 6.625 9.375 5.5 7.125 C5.8125 4.875 5.8125 4.875 6.5 3.125 C5.51 3.62 5.51 3.62 4.5 4.125 C4.5 6.435 4.5 8.745 4.5 11.125 C3.18 11.125 1.86 11.125 0.5 11.125 C0.5 8.815 0.5 6.505 0.5 4.125 C-1.81 3.795 -4.12 3.465 -6.5 3.125 C-6.5 4.775 -6.5 6.425 -6.5 8.125 C-5.18 7.795 -3.86 7.465 -2.5 7.125 C-2.5 8.445 -2.5 9.765 -2.5 11.125 C-4.875 11.25 -4.875 11.25 -7.5 11.125 C-9.5 9.125 -9.5 9.125 -9.8125 5.625 C-9.709375 4.47 -9.60625 3.315 -9.5 2.125 C-5.90173666 -0.27384223 -4.25940822 -0.08633936 0 0 Z M9.5 3.125 C9.5 4.775 9.5 6.425 9.5 8.125 C10.49 8.125 11.48 8.125 12.5 8.125 C12.17 6.475 11.84 4.825 11.5 3.125 C10.84 3.125 10.18 3.125 9.5 3.125 Z " fill="#ffffff" transform="translate(89.5,52.875)"/>
<path d="M0 0 C4 1 4 1 6 3 C6.66 2.01 7.32 1.02 8 0 C8.99 0 9.98 0 11 0 C11.33 1.98 11.66 3.96 12 6 C12.99 4.02 13.98 2.04 15 0 C18 1 18 1 19.6875 4.375 C21 8 21 8 21 11 C20.01 11 19.02 11 18 11 C18 10.34 18 9.68 18 9 C16.68 9 15.36 9 14 9 C14 9.66 14 10.32 14 11 C11 11 8 11 5 11 C4.67 10.34 4.34 9.68 4 9 C3.67 9.66 3.34 10.32 3 11 C2.01 11 1.02 11 0 11 C0 7.37 0 3.74 0 0 Z " fill="#ffffff" transform="translate(105,53)"/>
<path d="M0 0 C0.99 0 1.98 0 3 0 C3.33 0.66 3.66 1.32 4 2 C4.66 1.34 5.32 0.68 6 0 C6.99 0 7.98 0 9 0 C8.67 0.598125 8.34 1.19625 8 1.8125 C6.79212012 4.05386471 6.79212012 4.05386471 7 7 C7.99 7.33 8.98 7.66 10 8 C10 5.36 10 2.72 10 0 C12.31 0 14.62 0 17 0 C17 3.63 17 7.26 17 11 C16.01 11 15.02 11 14 11 C14 8.36 14 5.72 14 3 C13.67 3.33 13.34 3.66 13 4 C13.020625 4.804375 13.04125 5.60875 13.0625 6.4375 C13 9 13 9 11 11 C7.875 11.125 7.875 11.125 5 11 C4.67 10.34 4.34 9.68 4 9 C3.67 9.66 3.34 10.32 3 11 C2.01 11 1.02 11 0 11 C0 7.37 0 3.74 0 0 Z " fill="#ffffff" transform="translate(235,53)"/>
<path d="M0 0 C2.64 0 5.28 0 8 0 C8.33 0.66 8.66 1.32 9 2 C9.66 1.34 10.32 0.68 11 0 C15.55555556 0.55555556 15.55555556 0.55555556 17 2 C17.1875 5.4375 17.1875 5.4375 17 9 C15 11 15 11 12.5 11.125 C11.675 11.08375 10.85 11.0425 10 11 C9.34 11 8.68 11 8 11 C7.01 11 6.02 11 5 11 C5 8.36 5 5.72 5 3 C4.34 3 3.68 3 3 3 C3 5.31 3 7.62 3 10 C1.68 10.33 0.36 10.66 -1 11 C-0.67 7.37 -0.34 3.74 0 0 Z M12 3 C11.67 4.65 11.34 6.3 11 8 C11.99 8 12.98 8 14 8 C14 6.35 14 4.7 14 3 C13.34 3 12.68 3 12 3 Z M7 4 C8 8 8 8 8 8 Z " fill="#ffffff" transform="translate(143,53)"/>
<path d="M0 0 C0.99 0 1.98 0 3 0 C3.33 0.66 3.66 1.32 4 2 C4.66 1.34 5.32 0.68 6 0 C6.99 0 7.98 0 9 0 C8 2 7 4 6 6 C6.99 6.99 7.98 7.98 9 9 C9.12375 8.2575 9.2475 7.515 9.375 6.75 C9.95486701 4.19858515 10.73708739 2.2732427 12 0 C12.99 0 13.98 0 15 0 C15.50615298 1.26839526 16.00469099 2.53983102 16.5 3.8125 C16.7784375 4.52019531 17.056875 5.22789063 17.34375 5.95703125 C18 8 18 8 18 11 C17.01 11 16.02 11 15 11 C15 10.34 15 9.68 15 9 C13.68 9 12.36 9 11 9 C11 9.66 11 10.32 11 11 C9.02 11 7.04 11 5 11 C4.67 10.34 4.34 9.68 4 9 C3.67 9.66 3.34 10.32 3 11 C2.01 11 1.02 11 0 11 C0 7.37 0 3.74 0 0 Z " fill="#ffffff" transform="translate(282,53)"/>
<path d="M0 0 C12 0 12 0 16 1 C18 3 18 3 18.3125 5.4375 C18 8 18 8 16.8125 9.875 C15 11 15 11 12.4375 10.8125 C10 10 10 10 8 8 C8 6.68 8 5.36 8 4 C7.34 3.67 6.68 3.34 6 3 C6 5.64 6 8.28 6 11 C5.01 11 4.02 11 3 11 C3 8.36 3 5.72 3 3 C2.01 3 1.02 3 0 3 C0 2.01 0 1.02 0 0 Z M12 3 C11.67 4.32 11.34 5.64 11 7 C12.32 7 13.64 7 15 7 C14.67 5.68 14.34 4.36 14 3 C13.34 3 12.68 3 12 3 Z " fill="#ffffff" transform="translate(124,53)"/>
<path d="M0 0 C2 1.125 2 1.125 3 3 C2.79642205 7.58050383 1.1809079 11.01747254 -1 15 C-2.10470134 11.68589597 -1.69905409 10.32050692 -1 7 C-2.00057979 5.77988609 -2.00057979 5.77988609 -3.99609375 5.8671875 C-5.20458984 5.87105469 -5.20458984 5.87105469 -6.4375 5.875 C-7.24058594 5.87242188 -8.04367188 5.86984375 -8.87109375 5.8671875 C-11.05397931 5.86421674 -11.05397931 5.86421674 -13 7 C-15.6723621 7.13415472 -18.32250488 7.04318541 -21 7 C-21.33 6.34 -21.66 5.68 -22 5 C-21.00419922 4.70996094 -21.00419922 4.70996094 -19.98828125 4.4140625 C-14.56801624 2.84402493 -14.56801624 2.84402493 -9.3125 0.8125 C-6.07541355 -0.3248547 -3.39962945 -0.3147805 0 0 Z " fill="#ECF3F5" transform="translate(52,22)"/>
<path d="M0 0 C0.66 0.33 1.32 0.66 2 1 C2.4140625 4.16015625 2.4140625 4.16015625 2.625 8.0625 C2.69976562 9.35285156 2.77453125 10.64320312 2.8515625 11.97265625 C2.90054687 12.97167969 2.94953125 13.97070312 3 15 C-0.89733689 13.77207194 -3.86137911 12.65575614 -7 10 C-6.42424336 6.64749299 -5.40693737 5.06181371 -2.9375 2.75 C-2.38964844 2.22921875 -1.84179688 1.7084375 -1.27734375 1.171875 C-0.64505859 0.59179688 -0.64505859 0.59179688 0 0 Z " fill="#E85467" transform="translate(19,52)"/>
<path d="M0 0 C1.34771484 -0.00386719 1.34771484 -0.00386719 2.72265625 -0.0078125 C4.9375 0.125 4.9375 0.125 5.9375 1.125 C5.9375 3.105 5.9375 5.085 5.9375 7.125 C1.6475 7.125 -2.6425 7.125 -7.0625 7.125 C-7.0625 5.145 -7.0625 3.165 -7.0625 1.125 C-4.56110398 -0.12569801 -2.78857309 -0.00802467 0 0 Z " fill="#ffffff" transform="translate(205.0625,22.875)"/>
<path d="M0 0 C0.99 0 1.98 0 3 0 C3.33 0.99 3.66 1.98 4 3 C4.66 2.01 5.32 1.02 6 0 C6.99 0 7.98 0 9 0 C9 3.63 9 7.26 9 11 C8.01 11 7.02 11 6 11 C5.67 10.01 5.34 9.02 5 8 C4.01 9.485 4.01 9.485 3 11 C2.01 11 1.02 11 0 11 C0 7.37 0 3.74 0 0 Z " fill="#ffffff" transform="translate(253,53)"/>
<path d="M0 0 C0.99 0 1.98 0 3 0 C3.33 1.32 3.66 2.64 4 4 C4.45375 3.34 4.9075 2.68 5.375 2 C5.91125 1.34 6.4475 0.68 7 0 C7.66 0 8.32 0 9 0 C9 3.63 9 7.26 9 11 C8.01 11 7.02 11 6 11 C5.67 10.01 5.34 9.02 5 8 C4.01 9.485 4.01 9.485 3 11 C2.01 11 1.02 11 0 11 C0 7.37 0 3.74 0 0 Z " fill="#ffffff" transform="translate(272,53)"/>
<path d="M0 0 C2.31 0.33 4.62 0.66 7 1 C6.34 3.97 5.68 6.94 5 10 C5.66 10 6.32 10 7 10 C7.33 10.99 7.66 11.98 8 13 C5.125 13.125 5.125 13.125 2 13 C0 11 0 11 -0.1953125 8.3984375 C-0.17210938 7.40070312 -0.14890625 6.40296875 -0.125 5.375 C-0.10695313 4.37210938 -0.08890625 3.36921875 -0.0703125 2.3359375 C-0.04710938 1.56507812 -0.02390625 0.79421875 0 0 Z " fill="#E9566A" transform="translate(24,56)"/>
<path d="M0 0 C0.99 0 1.98 0 3 0 C3 0.99 3 1.98 3 3 C3.66 3 4.32 3 5 3 C5 2.01 5 1.02 5 0 C5.99 0 6.98 0 8 0 C8 3.63 8 7.26 8 11 C7.01 11 6.02 11 5 11 C5 10.01 5 9.02 5 8 C4.34 8 3.68 8 3 8 C3 8.99 3 9.98 3 11 C2.01 11 1.02 11 0 11 C0 7.37 0 3.74 0 0 Z " fill="#ffffff" transform="translate(263,53)"/>
<path d="M0 0 C2.86477034 1.05041579 3.83913226 1.70124563 5.3125 4.4375 C6 7 6 7 5 10 C4.5978125 9.0409375 4.5978125 9.0409375 4.1875 8.0625 C3.11332248 5.66868314 3.11332248 5.66868314 0 5 C-0.2475 5.94875 -0.495 6.8975 -0.75 7.875 C-2.12486373 12.72687419 -4.07134972 17.34689714 -6 22 C-7.37152537 17.88542388 -5.98760366 14.96020735 -4.6875 11 C-4.46126953 10.27554688 -4.23503906 9.55109375 -4.00195312 8.8046875 C-2.95221255 5.52538264 -1.92064202 2.88096304 0 0 Z " fill="#E9F0F3" transform="translate(36,44)"/>
<path d="M0 0 C2.31 0 4.62 0 7 0 C6.814375 1.0725 6.62875 2.145 6.4375 3.25 C6.0695432 6.40391546 5.95534657 8.09818492 7 11 C4.69 11 2.38 11 0 11 C0 7.37 0 3.74 0 0 Z " fill="#ffffff" transform="translate(188,53)"/>
<path d="M0 0 C0.309375 0.639375 0.61875 1.27875 0.9375 1.9375 C1.8345163 3.93610821 1.8345163 3.93610821 3 5 C3.39569108 7.01311449 3.74252191 9.03597208 4.0625 11.0625 C4.23910156 12.16722656 4.41570313 13.27195312 4.59765625 14.41015625 C4.73042969 15.26480469 4.86320312 16.11945313 5 17 C5.66 17 6.32 17 7 17 C7 17.66 7 18.32 7 19 C5.1875 18.9375 5.1875 18.9375 3 18 C-0.54997154 12.1679039 -0.32633017 6.68372526 0 0 Z " fill="#F9D1D6" transform="translate(21,54)"/>
<path d="M0 0 C0.99 0.66 1.98 1.32 3 2 C1.44499019 5.81684226 -1.03595495 8.19195732 -4 11 C-4.99 10.67 -5.98 10.34 -7 10 C-5.33248852 6.05860922 -2.77289351 3.2107188 0 0 Z " fill="#F8E7EA" transform="translate(57,8)"/>
<path d="M0 0 C3.28788824 3.11016455 5.83735988 6.01618925 8 10 C3.63204596 10 3.25341007 9.77237852 0.25 7 C-0.36359375 6.443125 -0.9771875 5.88625 -1.609375 5.3125 C-2.06828125 4.879375 -2.5271875 4.44625 -3 4 C-2.01 2.68 -1.02 1.36 0 0 Z " fill="#F7E6E9" transform="translate(11,8)"/>
<path d="M0 0 C3.93673644 1.31224548 6.22719294 2.91910327 9 6 C8.34 7.32 7.68 8.64 7 10 C4.06799526 7.14723863 1.35684596 4.34920216 -1 1 C-0.67 0.67 -0.34 0.34 0 0 Z " fill="#FDEEEF" transform="translate(51,51)"/>
<path d="M0 0 C-0.50522222 4.37859255 -3.17827222 6.81651224 -6 10 C-6.99 9.34 -7.98 8.68 -9 8 C-7.47364599 4.11473526 -4.49771687 0 0 0 Z " fill="#FDEFF0" transform="translate(18,51)"/>
<path d="M0 0 C0.33 0 0.66 0 1 0 C1.33 2.97 1.66 5.94 2 9 C1.67 8.01 1.34 7.02 1 6 C0.01 6 -0.98 6 -2 6 C-2 9.63 -2 13.26 -2 17 C-2.33 17 -2.66 17 -3 17 C-3.08160748 15.10489301 -3.13946459 13.20875496 -3.1875 11.3125 C-3.22230469 10.25675781 -3.25710938 9.20101562 -3.29296875 8.11328125 C-2.96555119 4.63392401 -2.05643142 2.7919812 0 0 Z " fill="#6B8BA2" transform="translate(14,23)"/>
<path d="M0 0 C0.99 0.33 1.98 0.66 3 1 C1.58192622 5.47238653 -0.11304374 9.71146306 -2 14 C-3.21065165 10.36804504 -2.62784815 8.93468371 -1.5625 5.3125 C-1.27503906 4.31863281 -0.98757812 3.32476562 -0.69140625 2.30078125 C-0.46324219 1.54152344 -0.23507813 0.78226563 0 0 Z " fill="#E3D3DA" transform="translate(32,52)"/>
<path d="M0 0 C3.96 0 7.92 0 12 0 C11.67 1.32 11.34 2.64 11 4 C10.29875 3.855625 9.5975 3.71125 8.875 3.5625 C5.92443859 2.98521625 2.96729849 2.48304859 0 2 C0 1.34 0 0.68 0 0 Z " fill="#75A4B7" transform="translate(24,23)"/>
<path d="M0 0 C0.99 0.33 1.98 0.66 3 1 C3.6875 3.0625 3.6875 3.0625 4 5 C4.66 5 5.32 5 6 5 C6 5.66 6 6.32 6 7 C4.125 6.6875 4.125 6.6875 2 6 C0 3 0 3 0 0 Z " fill="#FEFBFB" transform="translate(22,66)"/>
</svg>
