<svg class="mob-fixed-nav__btn-ico" viewBox="0 0 24 24" fill="none" xmlns="http://www.w3.org/2000/svg"><path d="M17.9227 3.52742C18.2607 3.18936 18.7193 2.99944 19.1973 2.99944C19.6754 2.99944 20.134 3.18936 20.472 3.52742C20.8101 3.86548 21 4.324 21 4.80209C21 5.28018 20.8101 5.73869 20.472 6.07676L12.3991 14.1497L9 14.9994L9.84978 11.6003L17.9227 3.52742Z" stroke="#1C1C1C" stroke-linecap="round" stroke-linejoin="round"/><path d="M16 5.99966L18 7.99966" stroke="#1C1C1C" stroke-linecap="round" stroke-linejoin="round"/><path d="M12.5 2.99937H12C7.02944 2.99937 3 7.02881 3 11.9994C3 16.9699 7.02944 20.9994 12 20.9994C16.9706 20.9994 21 16.9699 21 11.9994V11.4994" stroke="#1C1C1C" stroke-linecap="round"/></svg>